<svg width="186" height="45" viewBox="0 0 186 45" fill="none" xmlns="http://www.w3.org/2000/svg">
<path d="M176.52 25.009C178.3 25.009 180 24.6043 181.619 23.8759C183.237 23.0665 184.532 22.0144 185.665 20.6385L184.37 19.6672C183.399 20.8813 182.185 21.7716 180.89 22.419C179.514 23.0665 178.057 23.3903 176.52 23.3903C174.658 23.3903 173.039 22.9047 171.421 22.0144C169.883 21.1241 168.669 19.8291 167.698 18.2913C166.807 16.7536 166.322 14.973 166.322 13.1924C166.322 11.3309 166.807 9.63127 167.698 8.0935C168.588 6.55573 169.883 5.26077 171.421 4.37048C172.958 3.48019 174.658 2.99458 176.52 2.99458C177.976 2.99458 179.271 3.31832 180.566 3.88487C181.861 4.45141 182.994 5.3417 183.966 6.39386L185.18 5.26077C184.047 4.04674 182.752 3.07551 181.214 2.42803C179.676 1.78055 178.138 1.37587 176.52 1.37587C174.415 1.37587 172.473 1.94242 170.611 2.99458C168.831 4.04674 167.374 5.50357 166.322 7.28415C165.27 9.06472 164.784 11.0881 164.784 13.1924C164.784 15.2967 165.27 17.3201 166.322 19.1007C167.374 20.8813 168.831 22.3381 170.611 23.4712C172.473 24.5234 174.415 25.009 176.52 25.009ZM160.171 24.7662V23.0665H146.735V14.0018H157.176V12.3831H146.735V3.23738H160.171V1.61868H145.117V24.7662H160.171ZM139.937 1.61868V3.23738H130.791V24.7662H129.172V3.23738H119.946V1.61868H139.937Z" fill="black"/>
<path fill-rule="evenodd" clip-rule="evenodd" d="M80.6929 14.1639V22.4193H86.7631C87.7343 22.4193 88.7055 22.2574 89.5958 21.7718C90.3242 21.3671 90.9717 20.8815 91.4573 20.234C91.862 19.6675 92.1048 19.02 92.1048 18.2916C92.1048 17.5632 91.862 16.8347 91.3764 16.2682C90.8908 15.6207 90.3242 15.1351 89.5958 14.8114C88.3818 14.2448 86.9249 14.1639 85.63 14.1639H80.6929ZM80.6929 10.9265H84.9015C85.3872 10.9265 85.8728 10.9265 86.3584 10.8455C86.7631 10.7646 87.0868 10.6837 87.4915 10.5218C88.058 10.279 88.5436 9.8743 88.9483 9.38869C89.4339 8.90308 89.5958 8.25559 89.5958 7.52718C89.5958 6.96063 89.4339 6.39408 89.1102 5.82754C88.7055 5.26099 88.2199 4.85631 87.5724 4.53257C86.7631 4.1279 85.8728 4.04696 84.9825 4.04696H80.7738V10.9265H80.6929ZM110.801 11.7358C111.529 11.4121 112.096 10.8455 112.581 10.279C113.067 9.63149 113.31 8.98401 113.31 8.17466C113.31 7.44624 113.067 6.79876 112.662 6.23221C112.177 5.5038 111.529 5.01818 110.801 4.69444C109.911 4.20883 108.939 4.04696 107.968 4.04696H102.303V24.8473C102.303 25.252 101.979 25.6567 101.493 25.6567H99.8746C99.4699 25.6567 99.0652 25.3329 99.0652 24.8473V1.6189C99.0652 1.21423 99.389 0.80955 99.8746 0.80955H107.968C109.101 0.80955 110.234 0.971421 111.286 1.3761C112.339 1.78077 113.229 2.26638 114.038 2.9948C114.767 3.64228 115.414 4.45164 115.819 5.34192C116.223 6.23221 116.466 7.1225 116.466 8.09372C116.466 9.55056 115.981 10.9265 115.09 12.0596C114.281 13.1117 113.229 14.002 112.015 14.5685C111.286 14.8923 110.477 15.1351 109.587 15.297C109.344 15.297 109.101 15.3779 108.858 15.3779L116.223 24.2808C116.385 24.5236 116.466 24.8473 116.304 25.0901C116.143 25.3329 115.9 25.5757 115.576 25.5757H113.472C113.229 25.5757 112.986 25.4948 112.824 25.252L103.193 13.5164C103.031 13.2736 102.95 12.9498 103.112 12.707C103.274 12.4642 103.517 12.2214 103.84 12.2214H106.673C108.13 12.3024 109.587 12.2214 110.801 11.7358ZM90.9717 11.8977C92.1857 12.4642 93.1569 13.2736 93.9663 14.3257C94.8566 15.4588 95.2612 16.8347 95.2612 18.2106C95.2612 19.1819 95.0184 20.0721 94.6138 20.9624C94.2091 21.8527 93.5616 22.6621 92.8332 23.3096C92.0238 24.038 91.0526 24.5236 90.0814 24.9283C89.0292 25.3329 87.8961 25.4948 86.7631 25.4948H78.2648C78.022 25.4948 77.8602 25.4139 77.6983 25.252C77.5364 25.0901 77.4555 24.9283 77.4555 24.6855V1.53797C77.4555 1.13329 77.7792 0.728615 78.2648 0.728615H84.9015C87.0059 0.728615 89.0292 1.29516 90.6479 2.752C91.2954 3.39948 91.862 4.04696 92.1857 4.85631C92.5095 5.66567 92.7523 6.47502 92.7523 7.36531C92.7523 8.41747 92.5095 9.46962 92.0238 10.3599C91.7001 11.0074 91.3764 11.493 90.9717 11.8977ZM62.6443 16.1873L55.7649 25.6567C55.522 25.8995 55.1983 26.0614 54.8746 25.9804C54.5508 25.8995 54.308 25.5757 54.308 25.252V1.6189C54.308 1.21423 54.6318 0.80955 55.1174 0.80955H56.7361C57.1407 0.80955 57.5454 1.13329 57.5454 1.6189V17.806L69.6048 1.13329C69.7666 0.971421 70.0095 0.80955 70.2523 0.80955H72.2756C72.5994 0.80955 72.8422 0.971421 73.0041 1.21423C73.1659 1.45703 73.085 1.78077 72.9231 2.02358L64.5868 13.5164L73.6515 24.2808C73.8134 24.5236 73.8943 24.8473 73.7325 25.0901C73.5706 25.4139 73.3278 25.5757 73.0041 25.5757H70.8997C70.6569 25.5757 70.4141 25.4948 70.3332 25.3329L62.6443 16.1873Z" fill="black"/>
<path fill-rule="evenodd" clip-rule="evenodd" d="M0 0H45.6475L0 45V0Z" fill="#F7A500"/>
<path fill-rule="evenodd" clip-rule="evenodd" d="M0 0L45.3237 45H0V0Z" fill="#1068B1"/>
<path fill-rule="evenodd" clip-rule="evenodd" d="M22.8237 22.5L0 45V0L22.8237 22.5Z" fill="#2DA337"/>
<path d="M181.215 44.4336V39.2537H184.938V39.8202H181.862V41.4389H184.695V42.0864H181.862V43.867H185.019V44.4336H181.215ZM171.745 41.6008H173.202C173.526 41.6008 173.769 41.6008 173.93 41.5199C174.092 41.4389 174.254 41.358 174.335 41.1961C174.416 41.0343 174.497 40.8724 174.497 40.7105C174.497 40.4677 174.416 40.2249 174.254 40.144C174.092 39.9821 173.768 39.9012 173.445 39.9012H171.826V41.6008H171.745ZM171.017 44.4336V39.2537H173.283C173.769 39.2537 174.092 39.3346 174.335 39.4156C174.578 39.4965 174.74 39.6584 174.902 39.9012C175.063 40.144 175.144 40.3868 175.144 40.7105C175.144 41.1152 175.063 41.358 174.821 41.6008C174.578 41.8436 174.254 42.0055 173.688 42.0864C173.849 42.1674 174.011 42.2483 174.092 42.3292C174.254 42.4911 174.497 42.7339 174.659 42.9767L175.549 44.3526H174.659L174.011 43.3005C173.849 42.9767 173.688 42.7339 173.526 42.572C173.364 42.4102 173.283 42.3292 173.202 42.2483C173.121 42.1674 172.959 42.1674 172.878 42.0864C172.797 42.0864 172.635 42.0864 172.474 42.0864H171.664V44.3526H171.017V44.4336ZM162.114 42.3292H163.894L163.328 40.8724C163.166 40.4677 163.004 40.063 162.923 39.8202C162.842 40.144 162.761 40.4677 162.599 40.7915L162.114 42.3292ZM160.657 44.4336L162.599 39.2537H163.328L165.432 44.4336H164.623L164.056 42.8958H161.871L161.304 44.4336H160.657ZM150.54 44.4336L149.164 39.2537H149.893L150.702 42.653C150.783 42.9767 150.864 43.3814 150.945 43.7051C151.107 43.1386 151.188 42.8148 151.188 42.7339L152.159 39.2537H152.968L153.697 41.8436C153.858 42.4911 154.02 43.1386 154.101 43.7051C154.182 43.3814 154.263 42.9767 154.344 42.572L155.153 39.2537H155.801L154.425 44.4336H153.777L152.725 40.4677C152.644 40.144 152.563 39.9012 152.563 39.9012C152.483 40.144 152.483 40.3059 152.402 40.4677L151.349 44.4336H150.54ZM141.556 44.4336V39.9012H139.857V39.3346H143.984V39.9012H142.285V44.4336H141.556ZM130.873 44.4336V39.2537H134.353V39.8202H131.52V41.4389H133.948V42.0055H131.52V44.3526H130.873V44.4336ZM120.675 42.0055C120.675 42.653 120.837 43.1386 121.161 43.4623C121.484 43.7861 121.889 44.0289 122.456 44.0289C122.941 44.0289 123.427 43.867 123.751 43.4623C124.074 43.1386 124.236 42.572 124.236 41.9246C124.236 41.5199 124.155 41.1152 123.993 40.7915C123.831 40.4677 123.67 40.2249 123.346 40.063C123.103 39.9012 122.779 39.8202 122.456 39.8202C121.97 39.8202 121.565 39.9821 121.242 40.3059C120.837 40.6296 120.675 41.1961 120.675 42.0055ZM119.947 41.9246C119.947 41.0343 120.189 40.3868 120.675 39.9012C121.161 39.4156 121.727 39.1728 122.456 39.1728C122.941 39.1728 123.346 39.2537 123.751 39.4965C124.155 39.7393 124.398 40.063 124.641 40.4677C124.803 40.8724 124.965 41.358 124.965 41.8436C124.965 42.3292 124.884 42.8148 124.641 43.2195C124.398 43.6242 124.155 43.9479 123.751 44.1907C123.346 44.4335 122.941 44.5145 122.456 44.5145C121.97 44.5145 121.565 44.4335 121.161 44.1907C120.756 43.9479 120.513 43.6242 120.27 43.2195C120.108 42.8148 119.947 42.4102 119.947 41.9246ZM110.153 42.8148L110.801 42.7339C110.801 42.9767 110.882 43.2195 111.044 43.3814C111.125 43.5433 111.367 43.7051 111.529 43.7861C111.772 43.867 112.015 43.9479 112.339 43.9479C112.581 43.9479 112.824 43.9479 113.067 43.867C113.229 43.7861 113.391 43.7051 113.472 43.5433C113.553 43.3814 113.634 43.2195 113.634 43.1386C113.634 42.9767 113.553 42.8148 113.472 42.7339C113.391 42.653 113.229 42.4911 112.986 42.4102C112.824 42.3292 112.581 42.2483 112.096 42.1674C111.61 42.0864 111.286 41.9246 111.125 41.8436C110.882 41.6818 110.72 41.5199 110.558 41.358C110.396 41.1961 110.396 40.9533 110.396 40.7105C110.396 40.4677 110.477 40.2249 110.639 39.9821C110.801 39.7393 110.963 39.5774 111.286 39.4965C111.61 39.4156 111.853 39.3346 112.258 39.3346C112.662 39.3346 112.986 39.4156 113.31 39.4965C113.634 39.6584 113.795 39.8202 113.957 40.063C114.119 40.3059 114.2 40.5487 114.2 40.8724L113.553 40.9533C113.553 40.6296 113.391 40.3868 113.229 40.2249C112.986 40.063 112.743 39.9821 112.339 39.9821C111.934 39.9821 111.61 40.063 111.448 40.2249C111.286 40.3868 111.125 40.5487 111.125 40.7915C111.125 40.9533 111.206 41.1152 111.286 41.2771C111.448 41.358 111.772 41.5199 112.339 41.6818C112.905 41.8436 113.31 41.9246 113.472 42.0055C113.795 42.1674 113.957 42.3292 114.119 42.4911C114.281 42.7339 114.362 42.9767 114.362 43.2195C114.362 43.4623 114.281 43.7861 114.119 44.0289C113.957 44.2717 113.715 44.4335 113.472 44.5954C113.148 44.7573 112.824 44.7573 112.501 44.7573C112.015 44.7573 111.61 44.6764 111.367 44.5145C111.044 44.3526 110.801 44.1907 110.639 43.867C110.234 43.4623 110.153 43.1386 110.153 42.8148ZM95.9897 43.3814L94.8566 41.9246C94.5329 42.1674 94.2901 42.3292 94.1282 42.4911C94.0473 42.653 93.9663 42.8148 93.9663 42.9767C93.9663 43.2195 94.0473 43.3814 94.2091 43.6242C94.371 43.867 94.6138 43.9479 94.9376 43.9479C95.0994 43.9479 95.3422 43.867 95.5041 43.7861C95.7469 43.7051 95.9088 43.5433 95.9897 43.3814ZM95.0994 41.1961C95.3422 41.0343 95.585 40.8724 95.666 40.7915C95.7469 40.6296 95.8279 40.5487 95.8279 40.3868C95.8279 40.2249 95.7469 40.063 95.666 39.9821C95.585 39.9012 95.4232 39.8202 95.2613 39.8202C95.0994 39.8202 94.9376 39.9012 94.8566 39.9821C94.7757 40.063 94.6948 40.2249 94.6948 40.3868C94.6948 40.4677 94.6948 40.5487 94.7757 40.6296C94.8566 40.7105 94.8566 40.7915 94.9376 40.8724L95.0994 41.1961ZM96.3944 43.867C96.1516 44.1098 95.9897 44.2717 95.7469 44.3526C95.5041 44.4335 95.2613 44.5145 94.9376 44.5145C94.371 44.5145 93.9663 44.3526 93.6426 43.9479C93.3998 43.6242 93.2379 43.3005 93.2379 42.9767C93.2379 42.653 93.3189 42.4102 93.5617 42.0864C93.8045 41.8436 94.0473 41.6008 94.452 41.4389C94.2091 41.1961 94.0473 40.9533 93.9663 40.7915C93.8854 40.6296 93.8854 40.4677 93.8854 40.3059C93.8854 39.9821 94.0473 39.7393 94.2901 39.4965C94.5329 39.2537 94.8566 39.1728 95.1804 39.1728C95.5041 39.1728 95.8278 39.2537 96.0707 39.4965C96.3135 39.7393 96.3944 39.9821 96.3944 40.3059C96.3944 40.7915 96.0707 41.1961 95.4232 41.6008L96.3944 42.7339C96.4753 42.4911 96.5563 42.2483 96.6372 42.0055L97.2847 42.1674C97.2037 42.653 97.0419 42.9767 96.7991 43.3005C97.0419 43.6242 97.2847 43.867 97.6084 44.1098L97.2037 44.5954C96.9609 44.4335 96.6372 44.1907 96.3944 43.867ZM77.3746 43.867H78.6696C78.9124 43.867 79.0743 43.867 79.1552 43.867C79.3171 43.867 79.4789 43.7861 79.5599 43.7051C79.6408 43.6242 79.7217 43.5433 79.8027 43.3814C79.8836 43.2195 79.8836 43.1386 79.8836 42.9767C79.8836 42.8148 79.8027 42.653 79.7217 42.4911C79.6408 42.3292 79.4789 42.2483 79.3171 42.1674C79.1552 42.0864 78.9124 42.0864 78.5077 42.0864H77.2937V43.867H77.3746ZM77.3746 41.4389H78.5077C78.8314 41.4389 78.9933 41.4389 79.1552 41.358C79.3171 41.2771 79.4789 41.1961 79.5599 41.1152C79.6408 41.0343 79.7217 40.8724 79.7217 40.6296C79.7217 40.4677 79.6408 40.3059 79.5599 40.144C79.4789 39.9821 79.398 39.9012 79.2361 39.9012C79.0743 39.8202 78.8314 39.8202 78.4268 39.8202H77.3746V41.4389ZM76.6462 44.4336V39.2537H78.5886C78.9933 39.2537 79.3171 39.3346 79.5599 39.4156C79.8027 39.4965 79.9645 39.6584 80.1264 39.9012C80.2883 40.144 80.3692 40.3059 80.3692 40.5487C80.3692 40.7915 80.2883 40.9533 80.2073 41.1961C80.1264 41.358 79.8836 41.5199 79.6408 41.6818C79.9645 41.7627 80.2073 41.9246 80.3692 42.1674C80.5311 42.4102 80.612 42.653 80.612 42.9767C80.612 43.2195 80.5311 43.4623 80.4502 43.6242C80.3692 43.867 80.2073 44.0289 80.0455 44.1098C79.8836 44.1907 79.7217 44.2717 79.4789 44.3526C79.2361 44.4335 78.9933 44.4336 78.6696 44.4336H76.6462ZM66.853 44.4336V39.2537H70.576V39.8202H67.5005V41.4389H70.4142V42.0864H67.5814V43.867H70.7379V44.4336H66.853ZM55.9268 44.4336L54.5509 39.2537H55.2793L56.0886 42.653C56.1696 42.9767 56.2505 43.3814 56.3314 43.7051C56.4933 43.1386 56.5743 42.8148 56.5743 42.7339L57.5455 39.2537H58.3548L59.0832 41.8436C59.2451 42.4911 59.407 43.1386 59.4879 43.7051C59.5689 43.3814 59.6498 42.9767 59.7307 42.572L60.5401 39.2537H61.1876L59.8117 44.4336H59.1642L58.112 40.4677C58.0311 40.144 57.9502 39.9012 57.9502 39.9012C57.8692 40.144 57.8692 40.3059 57.7883 40.4677L56.6552 44.4336H55.9268Z" fill="black"/>
</svg>
