<svg width="28" height="28" viewBox="0 0 28 28" fill="none" xmlns="http://www.w3.org/2000/svg">
<g clip-path="url(#clip0_2201_803)">
<path d="M27.8771 22.3906C27.7663 22.2495 27.5971 22.1666 27.4175 22.1666H23.1451L22.2118 19.8333H23.9174C24.2394 19.8333 24.5008 19.5719 24.5008 19.2499V13.4166C24.5008 13.0946 24.2394 12.8333 23.9174 12.8333H23.3341V5.3445L24.4704 1.93435C24.4798 1.9087 24.4774 1.88185 24.4821 1.8562C24.4879 1.82585 24.4937 1.79785 24.4949 1.76635C24.4961 1.71385 24.4879 1.66485 24.4763 1.6147C24.4728 1.59835 24.4763 1.58205 24.4704 1.5657C24.4693 1.56105 24.4646 1.55755 24.4623 1.5517C24.4424 1.4957 24.4109 1.44435 24.3736 1.39655C24.3655 1.38491 24.3596 1.37091 24.3503 1.36041C24.3141 1.31955 24.2674 1.28805 24.2184 1.25776C24.2033 1.24841 24.1928 1.23441 24.1764 1.22741L21.8454 0.0618516C21.7638 0.021 21.6751 0 21.5841 0H5.25076C4.92876 0 4.6674 0.261352 4.6674 0.583352V2.9167C4.6674 3.23865 4.92876 3.5 5.25076 3.5H5.9414C6.11755 3.99465 6.50605 4.38315 7.00076 4.55935V7.4072L4.93926 10.5H4.08411C3.76211 10.5 3.50076 10.7614 3.50076 11.0834V14.5834C3.50076 14.9054 3.76211 15.1667 4.08411 15.1667H11.0841C11.4061 15.1667 11.6675 14.9054 11.6675 14.5834V11.0834C11.6675 10.7614 11.4061 10.5 11.0841 10.5H10.2278L8.1674 7.40835V4.55935C8.66205 4.3832 9.05055 3.9947 9.22676 3.5H19.8341V12.8334H19.2508C18.9288 12.8334 18.6674 13.0947 18.6674 13.4167V16.3334H13.4174C13.0954 16.3334 12.8341 16.5947 12.8341 16.9167V22.1667H10.5008V20.4167C10.5008 20.0947 10.2394 19.8334 9.9174 19.8334H7.00076V19.25C7.00076 18.928 6.7394 18.6666 6.4174 18.6666H2.9174C2.5954 18.6666 2.33405 18.928 2.33405 19.25V22.1666H1.75076C1.4824 22.1666 1.25026 22.3486 1.1849 22.6088L0.018255 27.2755C-0.0248934 27.4505 0.0136065 27.6349 0.124403 27.776C0.235255 27.9171 0.404404 28 0.584052 28H21.4406C24.5416 28 27.2307 25.8989 27.9832 22.8911C28.0264 22.7161 27.9879 22.5319 27.8771 22.3906ZM10.5008 11.6666V14H4.6674V11.6666H10.5008ZM8.82661 10.5H6.34046L7.58411 8.63565L8.82661 10.5ZM5.83411 2.33335V1.16665H21.4465L22.3973 1.64265L20.3242 2.3333H5.83411V2.33335ZM22.9958 2.67165L22.1978 5.06565C22.1779 5.12515 22.1674 5.187 22.1674 5.25V12.8334H21.0008V3.33665L22.9958 2.67165ZM19.8341 14H23.3341V18.6666H21.7451L20.9588 16.6996C20.8701 16.4791 20.6566 16.3333 20.4174 16.3333H19.8341V14H19.8341ZM14.0008 17.5H20.0231L20.8095 19.467C20.8095 19.467 20.8095 19.467 20.8095 19.4681L21.8898 22.1666H14.0008V17.5ZM7.00076 21H9.33411V22.1666H7.00076V21ZM3.50076 19.8334H5.83411V22.1667H3.50076V19.8334ZM21.4418 26.8334H1.3319L2.2069 23.3334H26.6183C25.7806 25.4264 23.7483 26.8334 21.4418 26.8334Z" fill="white"/>
<path d="M11.0834 26.25C11.7274 26.25 12.25 25.7274 12.25 25.0834C12.25 24.4394 11.7274 23.9167 11.0834 23.9167C10.4394 23.9167 9.91675 24.4394 9.91675 25.0834C9.91675 25.7274 10.4394 26.25 11.0834 26.25Z" fill="white"/>
<path d="M18.0834 26.25C18.7274 26.25 19.25 25.7274 19.25 25.0834C19.25 24.4394 18.7274 23.9167 18.0834 23.9167C17.4394 23.9167 16.9167 24.4394 16.9167 25.0834C16.9167 25.7274 17.4394 26.25 18.0834 26.25Z" fill="white"/>
</g>
<defs>
<clipPath id="clip0_2201_803">
<rect width="28" height="28" fill="white"/>
</clipPath>
</defs>
</svg>
